<svg xmlns="http://www.w3.org/2000/svg" viewBox="0 0 1200 675"><defs><linearGradient id="b" x1="0" y1="0" x2="1" y2="1"><stop stop-color="#f4f6fb"/><stop offset="1" stop-color="#e8eaff"/></linearGradient><filter id="s"><feDropShadow dx="0" dy="10" stdDeviation="12" flood-opacity=".14"/></filter></defs><rect width="1200" height="675" fill="url(#b)"/><circle cx="1080" cy="80" r="190" fill="#5b63b6" opacity=".12"/><circle cx="1110" cy="610" r="250" fill="#5b63b6" opacity=".08"/><rect x="60" y="55" width="1080" height="565" rx="25" fill="#fff" filter="url(#s)"/><rect x="60" y="55" width="15" height="565" rx="7" fill="#5b63b6"/><g transform="translate(110 105)"><rect width="92" height="92" rx="18" fill="#5b63b6"/><path d="M46 18v56M18 46h56" stroke="#fff" stroke-width="13" stroke-linecap="round"/></g><text x="110" y="280" font-family="Georgia,serif" font-size="55" font-weight="700" fill="#202944">NEUROSURGERY</text><text x="110" y="335" font-family="Arial,sans-serif" font-size="25" fill="#59657d">Brain • Spine • Neurologic Surgery</text><rect x="110" y="375" width="440" height="52" rx="26" fill="#5b63b6"/><text x="330" y="409" text-anchor="middle" font-family="Arial,sans-serif" font-size="22" font-weight="700" fill="#fff">California Centers to Know</text><text x="110" y="490" font-family="Arial,sans-serif" font-size="18" font-weight="700" fill="#5b63b6">BANGLAHUB • USA HOSPITAL GUIDE</text><g transform="translate(750 120)" opacity=".95"><rect x="35" y="105" width="290" height="205" rx="12" fill="#d9e2f0"/><rect x="10" y="90" width="340" height="22" rx="11" fill="#c5d0e1"/><rect x="82" y="58" width="195" height="42" rx="7" fill="#fff"/><rect x="105" y="70" width="45" height="18" fill="#d9e2f0"/><rect x="160" y="70" width="45" height="18" fill="#d9e2f0"/><rect x="215" y="70" width="45" height="18" fill="#d9e2f0"/><rect x="62" y="130" width="235" height="145" fill="#fff"/><g fill="#5b63b6" opacity=".72"><rect x="80" y="150" width="42" height="34"/><rect x="135" y="150" width="42" height="34"/><rect x="190" y="150" width="42" height="34"/><rect x="245" y="150" width="34" height="34"/><rect x="80" y="200" width="42" height="34"/><rect x="135" y="200" width="42" height="34"/><rect x="190" y="200" width="42" height="34"/><rect x="245" y="200" width="34" height="34"/></g><rect x="168" y="22" width="44" height="70" rx="5" fill="#fff"/><path d="M190 34v46M168 57h44" stroke="#5b63b6" stroke-width="9" stroke-linecap="round"/></g></svg>